<svg xmlns="http://www.w3.org/2000/svg" viewBox="0 0 512 512"><!--! Font Awesome Free 7.3.1 by @fontawesome - https://fontawesome.com License - https://fontawesome.com/license/free (Icons: CC BY 4.0, Fonts: SIL OFL 1.1, Code: MIT License) Copyright 2026 Fonticons, Inc.--><path fill="currentColor" d="M256 512a256 256 0 1 1 0-512 256 256 0 1 1 0 512m-12.5-272c1.2-1.9-.9-4.2-2.6-2.8l-89 79.5c-9.2 7.2-15.2 19.1-15.2 32.5 0 21.9 16 39.8 35.7 39.8h167.3c19.6 0 35.7-17.9 35.7-39.8s-16.1-39.7-35.7-39.8H213.1c-1.9 0-3-2.3-2.1-4.1zm-71.1-116.9c-19.6 0-35.7 17.9-35.7 39.8s16 39.8 35.7 39.8H299c1.9 0 3.1 2.2 2.2 4.1L268.5 272c-1.2 1.9.9 4.2 2.6 2.8l89-79.5c9.2-7.2 15.2-19.1 15.2-32.5 0-21.9-16-39.7-35.7-39.8H172.3z"/></svg>