<svg xmlns="http://www.w3.org/2000/svg" fill="none" stroke="currentColor" stroke-linecap="round" stroke-linejoin="round" stroke-width="2" class="lucide lucide-table-config" viewBox="0 0 24 24"><path d="M10.6 21H5a2 2 0 0 1-2-2V5a2 2 0 0 1 2-2h14a2 2 0 0 1 2 2v5.6M14.305 19.53l.923-.382M15 3v7.6M15.229 16.852l-.924-.383M16.852 15.228l-.383-.923M16.852 20.772l-.383.924M19.148 15.228l.383-.923M19.53 21.696l-.382-.924M20.773 16.852l.922-.383M20.773 19.148l.922.383M9 3v18"/><circle cx="18" cy="18" r="3"/></svg>